<?xml version="1.0" standalone="no"?>
<!DOCTYPE svg PUBLIC "-//W3C//DTD SVG 20010904//EN"
 "http://www.w3.org/TR/2001/REC-SVG-20010904/DTD/svg10.dtd">
<svg version="1.0" xmlns="http://www.w3.org/2000/svg"
 width="450.000000pt" height="450.000000pt" viewBox="0 0 450.000000 450.000000"
 preserveAspectRatio="xMidYMid meet">
<metadata>
Created by potrace 1.14, written by Peter Selinger 2001-2017
</metadata>
<g transform="translate(0.000000,450.000000) scale(0.100000,-0.100000)"
fill="#000000" stroke="none">
<path d="M560 4269 c-157 -31 -300 -178 -330 -340 -7 -37 -9 -610 -8 -1710 l3
-1654 23 -55 c46 -113 140 -207 249 -252 l58 -23 1660 -3 c1161 -2 1676 1
1712 8 162 34 298 169 332 328 8 38 11 516 11 1690 0 1791 3 1693 -57 1805
-54 97 -177 185 -292 207 -67 13 -3296 12 -3361 -1z m2628 -447 c20 -6 -9 -38
-258 -287 -154 -154 -280 -284 -280 -289 0 -12 574 -586 586 -586 5 0 133 124
284 275 151 151 281 275 287 275 22 0 17 -202 -7 -296 -72 -283 -288 -490
-572 -548 -129 -27 -265 -18 -390 26 l-60 20 -847 -845 c-465 -465 -862 -853
-881 -863 -50 -26 -181 -26 -234 0 -47 24 -99 75 -123 124 -25 52 -24 173 2
227 12 25 317 337 862 882 464 463 843 848 843 855 0 7 -9 36 -19 63 -27 72
-45 206 -38 289 9 105 31 180 84 285 38 77 63 110 134 182 75 76 100 94 190
138 57 27 136 57 174 65 72 15 222 19 263 8z"/>
<path d="M2152 2267 c-31 -29 -310 -307 -619 -617 -474 -473 -563 -567 -563
-591 0 -41 9 -58 41 -75 25 -12 33 -13 61 0 48 20 1225 1203 1234 1239 8 33
-16 74 -52 87 -38 15 -40 14 -102 -43z"/>
</g>
</svg>
